<svg clip-rule="evenodd" fill-rule="evenodd" stroke-linejoin="round" stroke-miterlimit="2" viewBox="0 0 560 400" xmlns="http://www.w3.org/2000/svg"><g fill-rule="nonzero" transform="matrix(2.21509 0 0 2.20288 -303.36 -1088.41)"><g fill="#4b3c32"><path d="m255.976 588.082h6.446c3.337 0 5.172.71 5.172 3.921 0 2.129-.815 3.045-2.254 3.401 1.503.271 2.651 1.292 2.651 3.67 0 3.129-1.587 4.277-5.175 4.277h-6.84zm6.446 6.254c1.166 0 2.084-.185 2.084-1.832 0-1.668-.938-1.918-2.084-1.918h-3.422v3.75zm.394 6.466c1.17 0 2.086-.309 2.086-1.978 0-1.668-.916-2.085-2.086-2.085h-3.816v4.063zm20.836 2.549h-3.502l-3.275-4.86h-2.9v4.86h-3.044v-15.269h6.089c3.775 0 5.631.896 5.631 5.173 0 2.984-.94 4.131-2.711 4.568zm-6.632-7.431c1.647 0 2.566-.286 2.566-2.621 0-2.359-1.022-2.693-2.607-2.693h-3.004v5.314zm10.855 7.431h-3.067l5.924-15.373h2.815l5.924 15.373h-3.233l-1.023-2.753h-6.319zm4.192-11.373s-2.232 6.094-2.253 6.094h4.484zm9.795 11.373h2.94v-10.365l7.132 10.365h2.629v-15.269h-2.943v9.72l-6.714-9.72h-3.044zm16.213-15.269h5.715c4.524 0 6.902 1.064 6.902 7.634s-2.378 7.635-6.902 7.635h-5.715zm5.695 12.741c2.668 0 3.69-1.103 3.69-4.605v-1.002c0-3.526-1.022-4.63-3.69-4.63h-2.63v10.237zm14.841 2.693c-2.316 0-4.609-.397-5.319-.604l.48-2.609c.626.146 3.4.564 4.859.564 2.171 0 2.836-.293 2.836-1.879 0-1.417-.439-1.521-2.94-2.02-4.171-.834-5.193-1.48-5.193-4.798 0-3.192 2.045-4.276 5.526-4.276 1.856 0 4.422.313 5.09.521l-.48 2.587c-.96-.145-2.879-.438-4.63-.438-1.773 0-2.398.396-2.398 1.65 0 1.437.478 1.605 2.877 2.085 4.005.792 5.299 1.293 5.299 4.755 0 3.42-1.92 4.462-6.007 4.462"/><path d="m255.976 584.577h1.529v-15.002h-1.529zm12.63-4.392 4.891-7.624v12.016h1.509v-15.002h-1.322l-5.699 8.605-5.676-8.605h-1.324v15.002h1.428v-12.016l4.891 7.624zm9.678-10.61h5.414c3.451 0 5.062 1.322 5.062 4.692 0 3.366-1.672 4.73-5.104 4.73h-3.864v5.58h-1.508zm5.414 8.038c2.108 0 3.554-.35 3.554-3.306 0-2.955-1.508-3.348-3.596-3.348h-3.864v6.654zm7.466 6.964h8.802v-1.404h-7.294v-5.828h5.58v-1.404h-5.58v-4.961h7.294v-1.405h-8.802zm22.337 0h-1.777l-3.678-5.785h-3.946v5.785h-1.508v-15.002h5.205c3.452 0 5.064 1.22 5.064 4.588 0 2.728-1.137 4.03-3.163 4.442zm-5.704-7.149c2.109 0 3.555-.268 3.555-3.224s-1.508-3.245-3.595-3.245h-3.657v6.469zm8.38 7.149h1.529v-15.002h-1.529zm5.188 0h-1.488l5.764-15.105h1.343l5.765 15.105h-1.551l-1.382-3.636h-7.068zm4.916-12.894-2.996 7.873h5.993zm8.408-2.108h1.508v13.598h7.912v1.404h-9.42z"/><path d="m224.306 587.597c-.608 1.994-2.717 3.116-4.709 2.506-1.993-.609-3.115-2.72-2.507-4.713.611-1.992 2.72-3.113 4.712-2.504s3.115 2.717 2.504 4.711"/></g><path d="m216.974 591.713c-1.657-1.181-2.66-3.096-2.688-5.132-.031-.253-.191-.476-.436-.577l-17.421-5.332s-.536-.085-.803-.088c-1.453-.015-2.804.917-3.252 2.379-.528 1.725.403 3.545 2.084 4.15l11.064 3.396-21.507 11.436.005.004-.007.003c-1.772.951-2.434 3.16-1.482 4.929.479.89 1.278 1.499 2.176 1.766.32.094.655.146.991.15.592.004 1.196-.133 1.756-.438.049-.023 21.281-11.302 21.281-11.302l-3.29 10.75h.002c-.44 1.736.55 3.53 2.28 4.061l.035.011c.306.088.613.132.919.138 1.408.015 2.717-.859 3.212-2.236l.005.002 5.312-17.368c.059-.265-.037-.534-.236-.702m24.556 5.633c.432-1.413-.328-2.903-1.704-3.397l.001-.004-13.14-4.02c-.273-.068-.552.026-.725.233-1.188 1.708-3.147 2.74-5.231 2.751l-.001.002c-.284.019-.539.208-.632.495l-4.025 13.164.013.003c-.361 1.41.445 2.872 1.855 3.304l.028.003c.246.075.498.112.742.115 1.146.011 2.211-.699 2.614-1.819l.012.002 2.762-9.034 6.207 11.63.007-.002.003.004c.39.727 1.041 1.225 1.772 1.441.261.078.533.118.806.122.487.007.98-.108 1.438-.355 1.442-.777 1.985-2.574 1.209-4.018l-6.096-11.444 8.772 2.684-.001-.002c.218.058.437.083.652.086 1.189.015 2.294-.748 2.662-1.946m-42.558-19.069-.005.004 15.732 4.797c.27.067.544-.023.718-.223 1.153-1.676 3.048-2.708 5.076-2.773l.002-.004c.278-.019.527-.201.626-.477l4.777-15.664-.013-.004c.407-1.604-.511-3.258-2.112-3.744l-.071-.019c-.281-.08-.564-.117-.844-.116-1.284.004-2.472.807-2.919 2.066l-3.14 10.245-7.049-13.183-.008.004-.002-.004c-.451-.84-1.206-1.406-2.055-1.645-.299-.085-.609-.126-.923-.124-.534 0-1.078.131-1.582.401-1.638.884-2.248 2.924-1.364 4.559l6.925 12.972-9.951-3.036s-.52-.095-.777-.095c-1.336.004-2.568.871-2.977 2.211-.491 1.605.376 3.293 1.936 3.855m25.34 2.914c1.717 1.17 2.764 3.115 2.8 5.188.022.283.21.536.494.63l8.375 2.561s.348.056.52.055c.864-.008 1.66-.567 1.925-1.437l.008-.023c.304-1.033-.259-2.12-1.265-2.481l-6.676-2.052 8.597-4.591-.002-.004.005-.004c.537-.286.905-.768 1.065-1.31.157-.536.113-1.131-.172-1.66-.4-.742-1.165-1.16-1.952-1.154-.345.002-.695.086-1.02.262l-8.463 4.509 1.976-6.457.008-.03-.001.001c.268-1.049-.331-2.132-1.376-2.452-.204-.063-.408-.091-.611-.089-.836.007-1.606.531-1.901 1.351l-.004-.004-2.575 8.421c-.086.292.02.595.244.772" fill="#f07300"/></g></svg>